<svg xmlns="http://www.w3.org/2000/svg" width="386" height="115" viewBox="0 0 386.6 115.09"><g data-name="Layer 2"><g data-name="Layer 1"><path fill="#836f46" d="M365.49 1.31h21.11v113.75h-21.11zm-41.78 0h-1.6v.06l-36.42 56.75-36.45-56.81h-21.11v113.75h21.11V36.57l32.03 46.86 4.42-.03 4.43.03 31.99-46.8v78.43h21.11V1.31h-19.51zM163.73 53.42h-12.11v-34.6h14.31c6.25 0 15.06 5.87 15.06 17.07a17 17 0 0 1-17.26 17.53M187.5 71a26.81 26.81 0 0 0-6.61-7.29c10-5 20.75-12.16 20.75-30.71 0-30-32.22-31.48-38.18-31.48h-11.84v-.21h-21.11v113.75h21.11V71.22h11a20 20 0 0 1 3 3.21c4.68 6 25 40.48 25 40.48h24S192.74 78.84 187.5 71"/><path fill="#d80f24" d="M40.7 40.7h33.69v33.69H40.7z"/><path fill="#6e766c" d="M89.78 47.63l6.5-6.33V30.93l-16.52 16.7v7.44h35.33v-7.44H89.78z"/><path fill="#0077a6" d="M89.78 67.46l6.5 6.33v10.37l-16.52-16.7v-7.44h35.33v7.44H89.78z"/><path fill="#4c8d33" d="M25.32 47.63l-6.5-6.33V30.93l16.52 16.7v7.44H0v-7.44h25.32z"/><path fill="#836f46" d="M25.32 67.46l-6.5 6.33v10.37l16.52-16.7v-7.44H0v7.44h25.32z"/><path fill="#5d6393" d="M67.46 25.32l6.33-6.5h10.37l-16.7 16.52h-7.44V0h7.44v25.32z"/><path fill="#b15518" d="M47.63 25.32l-6.33-6.5H30.93l16.7 16.52h7.44V0h-7.44v25.32z"/><path fill="#7e226f" d="M67.46 89.78l6.33 6.5h10.37l-16.7-16.52h-7.44v35.33h7.44V89.78z"/><path fill="#e1670f" d="M47.63 89.78l-6.33 6.5H30.93l16.7-16.52h7.44v35.33h-7.44V89.78z"/></g></g></svg>